<svg width="195" height="16" viewBox="0 0 195 16" fill="none" xmlns="http://www.w3.org/2000/svg">
<path d="M0.465811 8.06178C0.465811 7.27131 0.621081 6.57024 0.931622 5.95857C1.25157 5.3469 1.67974 4.87639 2.21613 4.54703C2.76193 4.21766 3.36889 4.05298 4.03703 4.05298C4.62047 4.05298 5.12862 4.17061 5.5615 4.40587C6.00378 4.64113 6.35667 4.93755 6.62016 5.29515V4.18002H8.61044V12H6.62016V10.8566C6.36608 11.2236 6.0132 11.5295 5.5615 11.7742C5.11921 12.0094 4.60635 12.127 4.02291 12.127C3.36419 12.127 2.76193 11.9577 2.21613 11.6189C1.67974 11.2801 1.25157 10.8049 0.931622 10.1932C0.621081 9.57214 0.465811 8.86166 0.465811 8.06178ZM6.62016 8.09001C6.62016 7.61009 6.52606 7.20074 6.33785 6.86196C6.14964 6.51378 5.89557 6.25029 5.57561 6.0715C5.25566 5.88329 4.91219 5.78919 4.54519 5.78919C4.17818 5.78919 3.83941 5.87859 3.52887 6.05738C3.21833 6.23618 2.96425 6.49967 2.76663 6.84785C2.57843 7.18662 2.48432 7.59126 2.48432 8.06178C2.48432 8.5323 2.57843 8.94635 2.76663 9.30394C2.96425 9.65212 3.21833 9.92032 3.52887 10.1085C3.84882 10.2967 4.18759 10.3908 4.54519 10.3908C4.91219 10.3908 5.25566 10.3014 5.57561 10.1226C5.89557 9.93443 6.14964 9.67095 6.33785 9.33217C6.52606 8.98399 6.62016 8.56994 6.62016 8.09001ZM12.799 5.32338C13.0531 4.94696 13.4013 4.64113 13.8435 4.40587C14.2952 4.17061 14.8081 4.05298 15.3821 4.05298C16.0503 4.05298 16.6525 4.21766 17.1889 4.54703C17.7347 4.87639 18.1629 5.3469 18.4734 5.95857C18.7934 6.56083 18.9533 7.2619 18.9533 8.06178C18.9533 8.86166 18.7934 9.57214 18.4734 10.1932C18.1629 10.8049 17.7347 11.2801 17.1889 11.6189C16.6525 11.9577 16.0503 12.127 15.3821 12.127C14.7987 12.127 14.2858 12.0141 13.8435 11.7883C13.4107 11.553 13.0625 11.2519 12.799 10.8849V12H10.8228V1.55454H12.799V5.32338ZM16.9348 8.06178C16.9348 7.59126 16.836 7.18662 16.6384 6.84785C16.4502 6.49967 16.1961 6.23618 15.8762 6.05738C15.5656 5.87859 15.2269 5.78919 14.8599 5.78919C14.5023 5.78919 14.1635 5.88329 13.8435 6.0715C13.533 6.25029 13.2789 6.51378 13.0813 6.86196C12.8931 7.21015 12.799 7.6195 12.799 8.09001C12.799 8.56053 12.8931 8.96988 13.0813 9.31806C13.2789 9.66624 13.533 9.93443 13.8435 10.1226C14.1635 10.3014 14.5023 10.3908 14.8599 10.3908C15.2269 10.3908 15.5656 10.2967 15.8762 10.1085C16.1961 9.92032 16.4502 9.65212 16.6384 9.30394C16.836 8.95576 16.9348 8.54171 16.9348 8.06178ZM30.3831 4.0671C31.343 4.0671 32.1146 4.36352 32.6981 4.95638C33.2909 5.53982 33.5873 6.35851 33.5873 7.41247V12H31.6112V7.68066C31.6112 7.06899 31.4559 6.60318 31.1454 6.28323C30.8348 5.95387 30.4114 5.78919 29.875 5.78919C29.3386 5.78919 28.9104 5.95387 28.5905 6.28323C28.2799 6.60318 28.1247 7.06899 28.1247 7.68066V12H26.1485V7.68066C26.1485 7.06899 25.9932 6.60318 25.6827 6.28323C25.3721 5.95387 24.9487 5.78919 24.4123 5.78919C23.8665 5.78919 23.4336 5.95387 23.1137 6.28323C22.8031 6.60318 22.6478 7.06899 22.6478 7.68066V12H20.6717V4.18002H22.6478V5.12576C22.9019 4.7964 23.2266 4.53762 23.6218 4.34941C24.0265 4.1612 24.4687 4.0671 24.9487 4.0671C25.5603 4.0671 26.1061 4.19884 26.5861 4.46233C27.066 4.71641 27.4377 5.08341 27.7012 5.56334C27.9553 5.11165 28.3223 4.74935 28.8022 4.47645C29.2915 4.20355 29.8185 4.0671 30.3831 4.0671ZM35.2368 8.09001C35.2368 7.28072 35.4014 6.57495 35.7308 5.97269C36.0602 5.36102 36.5166 4.8905 37.1 4.56114C37.6834 4.22237 38.3516 4.05298 39.1044 4.05298C40.0737 4.05298 40.8735 4.29765 41.504 4.78699C42.1439 5.26692 42.5721 5.94446 42.7885 6.81962H40.6571C40.5442 6.48085 40.3513 6.21736 40.0784 6.02915C39.8149 5.83153 39.4855 5.73273 39.0903 5.73273C38.5257 5.73273 38.0787 5.93975 37.7493 6.35381C37.42 6.75845 37.2553 7.33719 37.2553 8.09001C37.2553 8.83343 37.42 9.41216 37.7493 9.82622C38.0787 10.2309 38.5257 10.4332 39.0903 10.4332C39.8902 10.4332 40.4124 10.0756 40.6571 9.36041H42.7885C42.5721 10.2073 42.1439 10.8802 41.504 11.3789C40.8641 11.8777 40.0643 12.127 39.1044 12.127C38.3516 12.127 37.6834 11.9624 37.1 11.633C36.5166 11.2942 36.0602 10.8237 35.7308 10.2214C35.4014 9.60978 35.2368 8.8993 35.2368 8.09001ZM47.991 12.127C47.2382 12.127 46.5606 11.9624 45.9583 11.633C45.3561 11.2942 44.8809 10.819 44.5327 10.2073C44.1939 9.59566 44.0245 8.88989 44.0245 8.09001C44.0245 7.29013 44.1986 6.58436 44.5468 5.97269C44.9044 5.36102 45.389 4.8905 46.0007 4.56114C46.6124 4.22237 47.2946 4.05298 48.0474 4.05298C48.8003 4.05298 49.4825 4.22237 50.0942 4.56114C50.7059 4.8905 51.1858 5.36102 51.534 5.97269C51.8916 6.58436 52.0704 7.29013 52.0704 8.09001C52.0704 8.88989 51.8869 9.59566 51.5198 10.2073C51.1623 10.819 50.6729 11.2942 50.0518 11.633C49.4402 11.9624 48.7532 12.127 47.991 12.127ZM47.991 10.405C48.3486 10.405 48.6826 10.3203 48.9932 10.1509C49.3131 9.97208 49.5672 9.70859 49.7554 9.36041C49.9436 9.01222 50.0377 8.58876 50.0377 8.09001C50.0377 7.3466 49.8401 6.77727 49.4449 6.38204C49.059 5.97739 48.5838 5.77507 48.0192 5.77507C47.4546 5.77507 46.9794 5.97739 46.5935 6.38204C46.2171 6.77727 46.0289 7.3466 46.0289 8.09001C46.0289 8.83343 46.2124 9.40746 46.5794 9.8121C46.9558 10.2073 47.4264 10.405 47.991 10.405ZM53.2941 8.06178C53.2941 7.27131 53.4494 6.57024 53.7599 5.95857C54.0799 5.3469 54.5127 4.87639 55.0585 4.54703C55.6043 4.21766 56.2113 4.05298 56.8794 4.05298C57.3876 4.05298 57.8722 4.16591 58.3333 4.39176C58.7944 4.60819 59.1614 4.89991 59.4343 5.26692V1.55454H61.4387V12H59.4343V10.8425C59.1897 11.2284 58.8462 11.5389 58.4039 11.7742C57.9616 12.0094 57.4488 12.127 56.8653 12.127C56.2066 12.127 55.6043 11.9577 55.0585 11.6189C54.5127 11.2801 54.0799 10.8049 53.7599 10.1932C53.4494 9.57214 53.2941 8.86166 53.2941 8.06178ZM59.4484 8.09001C59.4484 7.61009 59.3543 7.20074 59.1661 6.86196C58.9779 6.51378 58.7239 6.25029 58.4039 6.0715C58.084 5.88329 57.7405 5.78919 57.3735 5.78919C57.0065 5.78919 56.6677 5.87859 56.3572 6.05738C56.0466 6.23618 55.7925 6.49967 55.5949 6.84785C55.4067 7.18662 55.3126 7.59126 55.3126 8.06178C55.3126 8.5323 55.4067 8.94635 55.5949 9.30394C55.7925 9.65212 56.0466 9.92032 56.3572 10.1085C56.6771 10.2967 57.0159 10.3908 57.3735 10.3908C57.7405 10.3908 58.084 10.3014 58.4039 10.1226C58.7239 9.93443 58.9779 9.67095 59.1661 9.33217C59.3543 8.98399 59.4484 8.56994 59.4484 8.09001ZM70.9206 7.92063C70.9206 8.20294 70.9018 8.45701 70.8641 8.68286H65.1474C65.1944 9.24748 65.392 9.68977 65.7402 10.0097C66.0884 10.3297 66.5166 10.4896 67.0247 10.4896C67.7587 10.4896 68.281 10.1744 68.5915 9.54391H70.723C70.4971 10.2967 70.0642 10.9178 69.4243 11.4071C68.7844 11.8871 67.9987 12.127 67.0671 12.127C66.3142 12.127 65.6367 11.9624 65.0344 11.633C64.4416 11.2942 63.9758 10.819 63.637 10.2073C63.3076 9.59566 63.143 8.88989 63.143 8.09001C63.143 7.28072 63.3076 6.57024 63.637 5.95857C63.9664 5.3469 64.4275 4.87639 65.0203 4.54703C65.6132 4.21766 66.2954 4.05298 67.0671 4.05298C67.8105 4.05298 68.4739 4.21296 69.0573 4.53291C69.6502 4.85286 70.1066 5.30926 70.4265 5.90211C70.7559 6.48555 70.9206 7.15839 70.9206 7.92063ZM68.8738 7.35601C68.8644 6.84785 68.6809 6.44321 68.3233 6.14208C67.9657 5.83153 67.5282 5.67626 67.0106 5.67626C66.5213 5.67626 66.1072 5.82683 65.7684 6.12796C65.4391 6.41968 65.2368 6.82903 65.1615 7.35601H68.8738ZM77.0493 4.0671C77.6422 4.0671 78.1692 4.19884 78.6303 4.46233C79.0914 4.71641 79.449 5.09753 79.7031 5.60569C79.9665 6.10443 80.0983 6.70669 80.0983 7.41247V12H78.1221V7.68066C78.1221 7.05958 77.9669 6.58436 77.6563 6.255C77.3458 5.91623 76.9223 5.74684 76.3859 5.74684C75.8401 5.74684 75.4072 5.91623 75.0873 6.255C74.7768 6.58436 74.6215 7.05958 74.6215 7.68066V12H72.6453V1.55454H74.6215V5.15399C74.8756 4.81522 75.2143 4.55173 75.6378 4.36352C76.0613 4.16591 76.5318 4.0671 77.0493 4.0671ZM89.6422 4.18002V12H87.6519V11.0119C87.3979 11.3507 87.0638 11.6189 86.6497 11.8165C86.2451 12.0047 85.8028 12.0988 85.3229 12.0988C84.7112 12.0988 84.1701 11.9718 83.6996 11.7177C83.2291 11.4542 82.8574 11.0731 82.5845 10.5743C82.321 10.0662 82.1893 9.46392 82.1893 8.76755V4.18002H84.1654V8.48525C84.1654 9.10633 84.3207 9.58625 84.6312 9.92502C84.9418 10.2544 85.3652 10.4191 85.9016 10.4191C86.4474 10.4191 86.8756 10.2544 87.1861 9.92502C87.4967 9.58625 87.6519 9.10633 87.6519 8.48525V4.18002H89.6422ZM93.8505 5.32338C94.1046 4.94696 94.4528 4.64113 94.8951 4.40587C95.3468 4.17061 95.8596 4.05298 96.4337 4.05298C97.1018 4.05298 97.704 4.21766 98.2404 4.54703C98.7862 4.87639 99.2144 5.3469 99.5249 5.95857C99.8449 6.56083 100.005 7.2619 100.005 8.06178C100.005 8.86166 99.8449 9.57214 99.5249 10.1932C99.2144 10.8049 98.7862 11.2801 98.2404 11.6189C97.704 11.9577 97.1018 12.127 96.4337 12.127C95.8502 12.127 95.3373 12.0141 94.8951 11.7883C94.4622 11.553 94.114 11.2519 93.8505 10.8849V12H91.8744V1.55454H93.8505V5.32338ZM97.9864 8.06178C97.9864 7.59126 97.8875 7.18662 97.6899 6.84785C97.5017 6.49967 97.2476 6.23618 96.9277 6.05738C96.6172 5.87859 96.2784 5.78919 95.9114 5.78919C95.5538 5.78919 95.215 5.88329 94.8951 6.0715C94.5845 6.25029 94.3304 6.51378 94.1328 6.86196C93.9446 7.21015 93.8505 7.6195 93.8505 8.09001C93.8505 8.56053 93.9446 8.96988 94.1328 9.31806C94.3304 9.66624 94.5845 9.93443 94.8951 10.1226C95.215 10.3014 95.5538 10.3908 95.9114 10.3908C96.2784 10.3908 96.6172 10.2967 96.9277 10.1085C97.2476 9.92032 97.5017 9.65212 97.6899 9.30394C97.8875 8.95576 97.9864 8.54171 97.9864 8.06178ZM109.247 2.74024C110.338 2.74024 111.284 2.94257 112.084 3.34721C112.884 3.75185 113.496 4.32118 113.919 5.05518C114.352 5.78919 114.568 6.63612 114.568 7.59597C114.568 8.36762 114.432 9.09692 114.159 9.78387C113.895 10.4708 113.51 11.026 113.001 11.4495C112.493 11.873 111.891 12.0847 111.195 12.0847C110.705 12.0847 110.31 11.9859 110.009 11.7883C109.708 11.5812 109.515 11.2895 109.43 10.9131C109.157 11.2801 108.804 11.5718 108.372 11.7883C107.939 11.9953 107.482 12.0988 107.002 12.0988C106.287 12.0988 105.727 11.8871 105.323 11.4636C104.918 11.0307 104.716 10.4426 104.716 9.69918C104.716 8.9934 104.862 8.33468 105.153 7.72301C105.445 7.11134 105.85 6.622 106.367 6.255C106.885 5.87859 107.468 5.69038 108.118 5.69038C108.927 5.69038 109.482 5.97269 109.783 6.53731L109.91 5.8033H111.562L110.898 9.61448C110.87 9.79328 110.856 9.95796 110.856 10.1085C110.856 10.3344 110.903 10.5038 110.997 10.6167C111.091 10.7296 111.251 10.7861 111.477 10.7861C111.816 10.7861 112.098 10.6261 112.324 10.3061C112.559 9.98619 112.733 9.58625 112.846 9.10633C112.969 8.6264 113.03 8.14647 113.03 7.66655C113.03 6.5279 112.682 5.64803 111.985 5.02695C111.289 4.39646 110.305 4.08121 109.035 4.08121C107.953 4.08121 106.974 4.3447 106.099 4.87168C105.224 5.38925 104.537 6.09973 104.038 7.00312C103.549 7.8971 103.304 8.89459 103.304 9.9956C103.304 11.1625 103.648 12.0612 104.335 12.6917C105.031 13.3222 106.014 13.6374 107.285 13.6374C108.198 13.6374 109.002 13.4727 109.698 13.1434L109.981 14.442C109.087 14.8184 108.094 15.0066 107.002 15.0066C105.948 15.0066 105.026 14.8043 104.236 14.3996C103.445 14.0044 102.834 13.4398 102.401 12.7058C101.968 11.9718 101.751 11.1201 101.751 10.1509C101.751 8.76755 102.071 7.51128 102.711 6.38204C103.361 5.2528 104.255 4.36352 105.393 3.71421C106.541 3.0649 107.826 2.74024 109.247 2.74024ZM107.623 10.6308C107.962 10.6308 108.273 10.532 108.555 10.3344C108.837 10.1368 109.059 9.87327 109.219 9.54391C109.388 9.21455 109.473 8.86166 109.473 8.48525C109.473 8.09001 109.364 7.77006 109.148 7.52539C108.932 7.28072 108.63 7.15839 108.245 7.15839C107.896 7.15839 107.591 7.26661 107.327 7.48305C107.064 7.69007 106.857 7.96297 106.706 8.30174C106.565 8.64052 106.494 8.99811 106.494 9.37452C106.494 9.76034 106.588 10.0662 106.777 10.292C106.965 10.5179 107.247 10.6308 107.623 10.6308ZM119.901 4.05298C120.484 4.05298 120.997 4.17061 121.439 4.40587C121.882 4.63172 122.23 4.92814 122.484 5.29515V4.18002H124.474V12.0565C124.474 12.7811 124.328 13.4257 124.037 13.9903C123.745 14.5643 123.307 15.016 122.724 15.3454C122.141 15.6841 121.435 15.8535 120.607 15.8535C119.496 15.8535 118.583 15.5947 117.868 15.0772C117.162 14.5596 116.763 13.8538 116.668 12.9599H118.63C118.734 13.3174 118.955 13.5998 119.294 13.8068C119.642 14.0232 120.061 14.1314 120.55 14.1314C121.124 14.1314 121.59 13.9573 121.948 13.6092C122.305 13.2704 122.484 12.7528 122.484 12.0565V10.8425C122.23 11.2095 121.877 11.5154 121.425 11.76C120.983 12.0047 120.475 12.127 119.901 12.127C119.242 12.127 118.64 11.9577 118.094 11.6189C117.548 11.2801 117.115 10.8049 116.795 10.1932C116.485 9.57214 116.33 8.86166 116.33 8.06178C116.33 7.27131 116.485 6.57024 116.795 5.95857C117.115 5.3469 117.544 4.87639 118.08 4.54703C118.626 4.21766 119.233 4.05298 119.901 4.05298ZM122.484 8.09001C122.484 7.61009 122.39 7.20074 122.202 6.86196C122.013 6.51378 121.759 6.25029 121.439 6.0715C121.12 5.88329 120.776 5.78919 120.409 5.78919C120.042 5.78919 119.703 5.87859 119.393 6.05738C119.082 6.23618 118.828 6.49967 118.63 6.84785C118.442 7.18662 118.348 7.59126 118.348 8.06178C118.348 8.5323 118.442 8.94635 118.63 9.30394C118.828 9.65212 119.082 9.92032 119.393 10.1085C119.713 10.2967 120.051 10.3908 120.409 10.3908C120.776 10.3908 121.12 10.3014 121.439 10.1226C121.759 9.93443 122.013 9.67095 122.202 9.33217C122.39 8.98399 122.484 8.56994 122.484 8.09001ZM136.398 4.0671C137.358 4.0671 138.13 4.36352 138.713 4.95638C139.306 5.53982 139.602 6.35851 139.602 7.41247V12H137.626V7.68066C137.626 7.06899 137.471 6.60318 137.16 6.28323C136.85 5.95387 136.426 5.78919 135.89 5.78919C135.354 5.78919 134.925 5.95387 134.605 6.28323C134.295 6.60318 134.14 7.06899 134.14 7.68066V12H132.163V7.68066C132.163 7.06899 132.008 6.60318 131.698 6.28323C131.387 5.95387 130.964 5.78919 130.427 5.78919C129.881 5.78919 129.449 5.95387 129.129 6.28323C128.818 6.60318 128.663 7.06899 128.663 7.68066V12H126.687V4.18002H128.663V5.12576C128.917 4.7964 129.242 4.53762 129.637 4.34941C130.041 4.1612 130.484 4.0671 130.964 4.0671C131.575 4.0671 132.121 4.19884 132.601 4.46233C133.081 4.71641 133.453 5.08341 133.716 5.56334C133.97 5.11165 134.337 4.74935 134.817 4.47645C135.307 4.20355 135.833 4.0671 136.398 4.0671ZM141.252 8.06178C141.252 7.27131 141.407 6.57024 141.718 5.95857C142.038 5.3469 142.466 4.87639 143.002 4.54703C143.548 4.21766 144.155 4.05298 144.823 4.05298C145.406 4.05298 145.915 4.17061 146.347 4.40587C146.79 4.64113 147.143 4.93755 147.406 5.29515V4.18002H149.396V12H147.406V10.8566C147.152 11.2236 146.799 11.5295 146.347 11.7742C145.905 12.0094 145.392 12.127 144.809 12.127C144.15 12.127 143.548 11.9577 143.002 11.6189C142.466 11.2801 142.038 10.8049 141.718 10.1932C141.407 9.57214 141.252 8.86166 141.252 8.06178ZM147.406 8.09001C147.406 7.61009 147.312 7.20074 147.124 6.86196C146.936 6.51378 146.682 6.25029 146.362 6.0715C146.042 5.88329 145.698 5.78919 145.331 5.78919C144.964 5.78919 144.625 5.87859 144.315 6.05738C144.004 6.23618 143.75 6.49967 143.553 6.84785C143.364 7.18662 143.27 7.59126 143.27 8.06178C143.27 8.5323 143.364 8.94635 143.553 9.30394C143.75 9.65212 144.004 9.92032 144.315 10.1085C144.635 10.2967 144.974 10.3908 145.331 10.3908C145.698 10.3908 146.042 10.3014 146.362 10.1226C146.682 9.93443 146.936 9.67095 147.124 9.33217C147.312 8.98399 147.406 8.56994 147.406 8.09001ZM152.611 3.2484C152.263 3.2484 151.971 3.14018 151.736 2.92375C151.51 2.6979 151.397 2.42029 151.397 2.09093C151.397 1.76157 151.51 1.48867 151.736 1.27223C151.971 1.04639 152.263 0.933463 152.611 0.933463C152.959 0.933463 153.246 1.04639 153.472 1.27223C153.707 1.48867 153.825 1.76157 153.825 2.09093C153.825 2.42029 153.707 2.6979 153.472 2.92375C153.246 3.14018 152.959 3.2484 152.611 3.2484ZM153.585 4.18002V12H151.609V4.18002H153.585ZM157.796 1.55454V12H155.82V1.55454H157.796ZM160.906 12.0988C160.548 12.0988 160.252 11.9906 160.017 11.7742C159.791 11.5483 159.678 11.2707 159.678 10.9413C159.678 10.612 159.791 10.3391 160.017 10.1226C160.252 9.89679 160.548 9.78387 160.906 9.78387C161.254 9.78387 161.541 9.89679 161.767 10.1226C161.993 10.3391 162.106 10.612 162.106 10.9413C162.106 11.2707 161.993 11.5483 161.767 11.7742C161.541 11.9906 161.254 12.0988 160.906 12.0988ZM163.471 8.09001C163.471 7.28072 163.636 6.57495 163.966 5.97269C164.295 5.36102 164.751 4.8905 165.335 4.56114C165.918 4.22237 166.586 4.05298 167.339 4.05298C168.308 4.05298 169.108 4.29765 169.739 4.78699C170.379 5.26692 170.807 5.94446 171.023 6.81962H168.892C168.779 6.48085 168.586 6.21736 168.313 6.02915C168.05 5.83153 167.72 5.73273 167.325 5.73273C166.76 5.73273 166.313 5.93975 165.984 6.35381C165.655 6.75845 165.49 7.33719 165.49 8.09001C165.49 8.83343 165.655 9.41216 165.984 9.82622C166.313 10.2309 166.76 10.4332 167.325 10.4332C168.125 10.4332 168.647 10.0756 168.892 9.36041H171.023C170.807 10.2073 170.379 10.8802 169.739 11.3789C169.099 11.8777 168.299 12.127 167.339 12.127C166.586 12.127 165.918 11.9624 165.335 11.633C164.751 11.2942 164.295 10.8237 163.966 10.2214C163.636 9.60978 163.471 8.8993 163.471 8.09001ZM176.226 12.127C175.473 12.127 174.795 11.9624 174.193 11.633C173.591 11.2942 173.116 10.819 172.767 10.2073C172.429 9.59566 172.259 8.88989 172.259 8.09001C172.259 7.29013 172.433 6.58436 172.782 5.97269C173.139 5.36102 173.624 4.8905 174.235 4.56114C174.847 4.22237 175.529 4.05298 176.282 4.05298C177.035 4.05298 177.717 4.22237 178.329 4.56114C178.941 4.8905 179.421 5.36102 179.769 5.97269C180.126 6.58436 180.305 7.29013 180.305 8.09001C180.305 8.88989 180.122 9.59566 179.755 10.2073C179.397 10.819 178.908 11.2942 178.287 11.633C177.675 11.9624 176.988 12.127 176.226 12.127ZM176.226 10.405C176.583 10.405 176.917 10.3203 177.228 10.1509C177.548 9.97208 177.802 9.70859 177.99 9.36041C178.178 9.01222 178.272 8.58876 178.272 8.09001C178.272 7.3466 178.075 6.77727 177.68 6.38204C177.294 5.97739 176.819 5.77507 176.254 5.77507C175.689 5.77507 175.214 5.97739 174.828 6.38204C174.452 6.77727 174.264 7.3466 174.264 8.09001C174.264 8.83343 174.447 9.40746 174.814 9.8121C175.191 10.2073 175.661 10.405 176.226 10.405ZM191.748 4.0671C192.708 4.0671 193.48 4.36352 194.063 4.95638C194.656 5.53982 194.953 6.35851 194.953 7.41247V12H192.976V7.68066C192.976 7.06899 192.821 6.60318 192.511 6.28323C192.2 5.95387 191.777 5.78919 191.24 5.78919C190.704 5.78919 190.276 5.95387 189.956 6.28323C189.645 6.60318 189.49 7.06899 189.49 7.68066V12H187.514V7.68066C187.514 7.06899 187.359 6.60318 187.048 6.28323C186.737 5.95387 186.314 5.78919 185.778 5.78919C185.232 5.78919 184.799 5.95387 184.479 6.28323C184.168 6.60318 184.013 7.06899 184.013 7.68066V12H182.037V4.18002H184.013V5.12576C184.267 4.7964 184.592 4.53762 184.987 4.34941C185.392 4.1612 185.834 4.0671 186.314 4.0671C186.926 4.0671 187.471 4.19884 187.951 4.46233C188.431 4.71641 188.803 5.08341 189.066 5.56334C189.321 5.11165 189.688 4.74935 190.168 4.47645C190.657 4.20355 191.184 4.0671 191.748 4.0671Z" fill="#C5C5C5"/>
</svg>
